simulation
nRows=74
nColumns=15
endheader
time  TH_x TH_y TH_z SC_y  SC_z  SC_x  AC_y  AC_z  AC_x  GH_y  GH_z  GH_yy  EL_x  PS_y
0.750000  0.000000  0.000000  0.000000  -22.087049  9.873335  -10.845822  41.662876  28.840820  22.470854  36.470087  24.396303  -58.738178  24.487568  105.650712
0.750674  0.000000  0.000000  0.000000  -22.087049  9.873335  -6.917251  43.174262  26.190038  19.200940  36.470087  24.396303  -58.738178  24.487568  105.650712
0.751348  0.000000  0.000000  0.000000  -22.087049  9.873335  -2.988680  44.486068  23.468675  16.078462  36.470087  24.396303  -58.738178  24.487568  105.650712
0.752022  0.000000  0.000000  0.000000  -22.087049  9.873335  0.939892  45.612338  20.687694  13.083539  36.470087  24.396303  -58.738178  24.487568  105.650712
0.752695  0.000000  0.000000  0.000000  -22.087049  9.873335  4.868463  46.565393  17.856862  10.197428  36.470087  24.396303  -58.738178  24.487568  105.650712
0.753369  0.000000  0.000000  0.000000  -22.087049  9.873335  8.797035  47.355910  14.984929  7.402421  36.470087  24.396303  -58.738178  24.487568  105.650712
0.754043  0.000000  0.000000  0.000000  -22.087049  9.873335  12.725606  47.992820  12.079858  4.681885  36.470087  24.396303  -58.738178  24.487568  105.650712
0.754717  0.000000  0.000000  0.000000  -22.087049  9.873335  16.654178  48.483371  9.148926  2.020042  36.470087  24.396303  -58.738178  24.487568  105.650712
0.755391  0.000000  0.000000  0.000000  -22.087049  9.873335  20.582749  48.833172  6.198904  -0.598129  36.470087  24.396303  -58.738178  24.487568  105.650712
0.756065  0.000000  0.000000  0.000000  -22.087049  9.873335  24.511320  49.046200  3.236181  -3.187113  36.470087  24.396303  -58.738178  24.487568  105.650712
0.756739  0.000000  0.000000  0.000000  -22.087049  9.873335  28.439892  49.124911  0.266905  -5.760972  36.470087  24.396303  -58.738178  24.487568  105.650712
0.757412  0.000000  0.000000  0.000000  -22.087049  9.873335  32.368463  49.070198  -2.702907  -8.333589  36.470087  24.396303  -58.738178  24.487568  105.650712
0.758086  0.000000  0.000000  0.000000  -19.326031  7.962293  -22.631537  34.171110  38.603760  30.416935  71.348103  24.023731  24.708832  16.902480  116.290614
0.758760  0.000000  0.000000  0.000000  -19.326031  7.962293  -18.702965  36.626425  36.326966  26.382305  71.348103  24.023731  24.708832  16.902480  116.290614
0.759434  0.000000  0.000000  0.000000  -19.326031  7.962293  -14.774394  38.813429  33.922435  22.582955  71.348103  24.023731  24.708832  16.902480  116.290614
0.760108  0.000000  0.000000  0.000000  -19.326031  7.962293  -10.845822  40.749889  31.407741  18.996800  71.348103  24.023731  24.708832  16.902480  116.290614
0.760782  0.000000  0.000000  0.000000  -19.326031  7.962293  -6.917251  42.453757  28.798505  15.601273  71.348103  24.023731  24.708832  16.902480  116.290614
0.761456  0.000000  0.000000  0.000000  -19.326031  7.962293  -2.988680  43.942272  26.108536  12.374141  71.348103  24.023731  24.708832  16.902480  116.290614
0.762129  0.000000  0.000000  0.000000  -19.326031  7.962293  0.939892  45.231420  23.349985  9.294004  71.348103  24.023731  24.708832  16.902480  116.290614
0.762803  0.000000  0.000000  0.000000  -19.326031  7.962293  4.868463  46.335540  20.533676  6.340632  71.348103  24.023731  24.708832  16.902480  116.290614
0.763477  0.000000  0.000000  0.000000  -19.326031  7.962293  8.797035  47.267218  17.669183  3.494976  71.348103  24.023731  24.708832  16.902480  116.290614
0.764151  0.000000  0.000000  0.000000  -19.326031  7.962293  12.725606  48.037235  14.765113  0.739188  71.348103  24.023731  24.708832  16.902480  116.290614
0.764825  0.000000  0.000000  0.000000  -19.326031  7.962293  16.654178  48.654571  11.829248  -1.943516  71.348103  24.023731  24.708832  16.902480  116.290614
0.765499  0.000000  0.000000  0.000000  -19.326031  7.962293  20.582749  49.126453  8.868723  -4.568986  71.348103  24.023731  24.708832  16.902480  116.290614
0.766173  0.000000  0.000000  0.000000  -19.326031  7.962293  24.511320  49.458435  5.890167  -7.152295  71.348103  24.023731  24.708832  16.902480  116.290614
0.766846  0.000000  0.000000  0.000000  -19.326031  7.962293  28.439892  49.654372  2.899850  -9.707991  71.348103  24.023731  24.708832  16.902480  116.290614
0.767520  0.000000  0.000000  0.000000  -19.326031  7.962293  32.368463  49.716595  -0.096194  -12.250181  71.348103  24.023731  24.708832  16.902480  116.290614
0.768194  0.000000  0.000000  0.000000  -12.410034  15.400478  -22.646259  33.253665  14.068508  20.870695  25.540556  -0.149096  37.941791  26.488734  106.821001
0.768868  0.000000  0.000000  0.000000  -12.410034  15.400478  -18.717687  34.007955  11.892069  17.514075  25.540556  -0.149096  37.941791  26.488734  106.821001
0.769542  0.000000  0.000000  0.000000  -12.410034  15.400478  -14.789116  34.626246  9.676624  14.211202  25.540556  -0.149096  37.941791  26.488734  106.821001
0.770216  0.000000  0.000000  0.000000  -12.410034  15.400478  -10.860544  35.111223  7.430054  10.951897  25.540556  -0.149096  37.941791  26.488734  106.821001
0.770889  0.000000  0.000000  0.000000  -12.410034  15.400478  -6.931973  35.465099  5.159960  7.725923  25.540556  -0.149096  37.941791  26.488734  106.821001
0.771563  0.000000  0.000000  0.000000  -12.410034  15.400478  -3.003402  35.689569  2.873713  4.523040  25.540556  -0.149096  37.941791  26.488734  106.821001
0.772237  0.000000  0.000000  0.000000  -12.410034  15.400478  0.925170  35.785704  0.578542  1.332984  25.540556  -0.149096  37.941791  26.488734  106.821001
0.772911  0.000000  0.000000  0.000000  -12.410034  15.400478  4.853741  35.753984  -1.718421  -1.854491  25.540556  -0.149096  37.941791  26.488734  106.821001
0.773585  0.000000  0.000000  0.000000  -12.410034  15.400478  8.782313  35.594249  -4.010057  -5.049634  25.540556  -0.149096  37.941791  26.488734  106.821001
0.774259  0.000000  0.000000  0.000000  -12.410034  15.400478  12.710884  35.305723  -6.289198  -8.262697  25.540556  -0.149096  37.941791  26.488734  106.821001
0.774933  0.000000  0.000000  0.000000  -12.410034  15.400478  16.639456  34.887011  -8.548546  -11.503933  25.540556  -0.149096  37.941791  26.488734  106.821001
0.775606  0.000000  0.000000  0.000000  -12.410034  15.400478  20.568027  34.336178  -10.780638  -14.783584  25.540556  -0.149096  37.941791  26.488734  106.821001
0.776280  0.000000  0.000000  0.000000  -12.410034  15.400478  24.496598  33.650744  -12.977727  -18.111868  25.540556  -0.149096  37.941791  26.488734  106.821001
0.776954  0.000000  0.000000  0.000000  -12.410034  15.400478  28.425170  32.827835  -15.131774  -21.498914  25.540556  -0.149096  37.941791  26.488734  106.821001
0.777628  0.000000  0.000000  0.000000  -12.410034  15.400478  32.353741  31.864251  -17.234343  -24.954678  25.540556  -0.149096  37.941791  26.488734  106.821001
0.778302  0.000000  0.000000  0.000000  -17.935806  13.091089  -18.917286  33.045237  17.052796  17.463154  24.444915  -1.852608  47.606418  13.676352  96.722613
0.778976  0.000000  0.000000  0.000000  -17.935806  13.091089  -14.988714  33.982851  14.883013  14.056421  24.444915  -1.852608  47.606418  13.676352  96.722613
0.779650  0.000000  0.000000  0.000000  -17.935806  13.091089  -11.060143  34.777957  12.663959  10.718331  24.444915  -1.852608  47.606418  13.676352  96.722613
0.780323  0.000000  0.000000  0.000000  -17.935806  13.091089  -7.131571  35.434085  10.404042  7.438364  24.444915  -1.852608  47.606418  13.676352  96.722613
0.780997  0.000000  0.000000  0.000000  -17.935806  13.091089  -3.203000  35.954343  8.111265  4.205903  24.444915  -1.852608  47.606418  13.676352  96.722613
0.781671  0.000000  0.000000  0.000000  -17.935806  13.091089  0.725571  36.341326  5.793310  1.010305  24.444915  -1.852608  47.606418  13.676352  96.722613
0.782345  0.000000  0.000000  0.000000  -17.935806  13.091089  4.654143  36.597024  3.457609  -2.159066  24.444915  -1.852608  47.606418  13.676352  96.722613
0.783019  0.000000  0.000000  0.000000  -17.935806  13.091089  8.582714  36.722799  1.111407  -5.312828  24.444915  -1.852608  47.606418  13.676352  96.722613
0.783693  0.000000  0.000000  0.000000  -17.935806  13.091089  12.511286  36.719316  -1.238154  -8.461579  24.444915  -1.852608  47.606418  13.676352  96.722613
0.784367  0.000000  0.000000  0.000000  -17.935806  13.091089  16.439857  36.586554  -3.583972  -11.615911  24.444915  -1.852608  47.606418  13.676352  96.722613
0.785040  0.000000  0.000000  0.000000  -17.935806  13.091089  20.368429  36.323810  -5.918903  -14.786429  24.444915  -1.852608  47.606418  13.676352  96.722613
0.785714  0.000000  0.000000  0.000000  -17.935806  13.091089  24.297000  35.929687  -8.235686  -17.983744  24.444915  -1.852608  47.606418  13.676352  96.722613
0.786388  0.000000  0.000000  0.000000  -17.935806  13.091089  28.225571  35.402175  -10.526893  -21.218496  24.444915  -1.852608  47.606418  13.676352  96.722613
0.787062  0.000000  0.000000  0.000000  -17.935806  13.091089  32.154143  34.738631  -12.784813  -24.501329  24.444915  -1.852608  47.606418  13.676352  96.722613
0.787736  0.000000  0.000000  0.000000  -17.935806  13.091089  36.082714  33.935930  -15.001431  -27.842859  24.444915  -1.852608  47.606418  13.676352  96.722613
0.788410  0.000000  0.000000  0.000000  -21.094521  9.072981  -18.917286  35.345730  36.767652  34.073529  45.532906  2.607091  -25.385416  17.853676  97.427264
0.789084  0.000000  0.000000  0.000000  -21.094521  9.072981  -14.988714  37.608284  34.431076  30.188531  45.532906  2.607091  -25.385416  17.853676  97.427264
0.789757  0.000000  0.000000  0.000000  -21.094521  9.072981  -11.060143  39.618293  31.978440  26.519891  45.532906  2.607091  -25.385416  17.853676  97.427264
0.790431  0.000000  0.000000  0.000000  -21.094521  9.072981  -7.131571  41.392800  29.425861  23.046033  45.532906  2.607091  -25.385416  17.853676  97.427264
0.791105  0.000000  0.000000  0.000000  -21.094521  9.072981  -3.203000  42.948578  26.787637  19.745294  45.532906  2.607091  -25.385416  17.853676  97.427264
0.791779  0.000000  0.000000  0.000000  -21.094521  9.072981  0.725571  44.301397  24.076429  16.596597  45.532906  2.607091  -25.385416  17.853676  97.427264
0.792453  0.000000  0.000000  0.000000  -21.094521  9.072981  4.654143  45.465702  21.303473  13.579771  45.532906  2.607091  -25.385416  17.853676  97.427264
0.793127  0.000000  0.000000  0.000000  -21.094521  9.072981  8.582714  46.454227  18.478769  10.675780  45.532906  2.607091  -25.385416  17.853676  97.427264
0.793801  0.000000  0.000000  0.000000  -21.094521  9.072981  12.511286  47.278055  15.611256  7.866655  45.532906  2.607091  -25.385416  17.853676  97.427264
0.794474  0.000000  0.000000  0.000000  -21.094521  9.072981  16.439857  47.946513  12.709050  5.135522  45.532906  2.607091  -25.385416  17.853676  97.427264
0.795148  0.000000  0.000000  0.000000  -21.094521  9.072981  20.368429  48.467235  9.779538  2.466387  45.532906  2.607091  -25.385416  17.853676  97.427264
0.795822  0.000000  0.000000  0.000000  -21.094521  9.072981  24.297000  48.846191  6.829586  -0.155910  45.532906  2.607091  -25.385416  17.853676  97.427264
0.796496  0.000000  0.000000  0.000000  -21.094521  9.072981  28.225571  49.087691  3.865633  -2.745991  45.532906  2.607091  -25.385416  17.853676  97.427264
0.797170  0.000000  0.000000  0.000000  -21.094521  9.072981  32.154143  49.194540  0.893864  -5.317986  45.532906  2.607091  -25.385416  17.853676  97.427264
0.797844  0.000000  0.000000  0.000000  -21.094521  9.072981  36.082714  49.167954  -2.079699  -7.885824  45.532906  2.607091  -25.385416  17.853676  97.427264
0.798518  0.000000  0.000000  0.000000  -13.242280  1.283512  -18.967421  41.510957  31.389923  19.630626  53.805510  0.283792  32.158341  30.334176  111.267583
0.799191  0.000000  0.000000  0.000000  -13.242280  1.283512  -15.038850  43.192380  28.742472  16.276109  53.805510  0.283792  32.158341  30.334176  111.267583
